<svg width="416" height="226" viewBox="0 0 416 226" fill="none" xmlns="http://www.w3.org/2000/svg">
<g clip-path="url(#paint0_angular_2006_4_clip_path)" data-figma-skip-parse="true"><g transform="matrix(-0.00735892 -0.0355374 -0.0870197 -0.000331602 332.377 96.0809)"><foreignObject x="-8210.85" y="-8210.85" width="16421.7" height="16421.7"><div xmlns="http://www.w3.org/1999/xhtml" style="background:conic-gradient(from 90deg,rgba(81, 210, 37, 1) 0deg,rgba(50, 126, 26, 1) 5.94679deg,rgba(81, 210, 37, 1) 360deg);height:100%;width:100%;opacity:1"></div></foreignObject></g></g><path d="M274.723 128.964L268.262 153.114L274.723 128.964ZM336.487 145.449L312.766 137.556L336.487 145.449ZM292.182 74.8266L278.385 95.6753L272.248 91.6138L269.29 84.8746L292.182 74.8266ZM349.877 25.6405L346.225 50.3724L349.877 25.6405ZM12.0037 195.876L23.2226 173.534C24.91 174.381 29.6405 175.758 39.0532 175.802C48.0172 175.844 59.1802 174.685 72.1281 172.389C97.9987 167.802 128.386 159.157 157.694 149.379C186.869 139.645 214.267 129.027 233.939 120.786C243.807 116.653 251.507 113.211 256.408 110.852C258.987 109.61 260.254 108.924 260.589 108.726C261.155 108.393 259.685 109.171 257.905 110.772C257.349 111.271 256.309 112.252 255.181 113.672C254.273 114.816 251.958 117.895 250.692 122.581C249.185 128.159 249.181 136.597 254.905 144.134C259.698 150.446 265.855 152.47 268.262 153.114L274.723 128.964L281.185 104.813C283.679 105.48 289.898 107.539 294.725 113.896C300.483 121.479 300.487 129.973 298.962 135.619C297.678 140.372 295.319 143.528 294.34 144.761C293.143 146.27 292.006 147.349 291.33 147.957C289.064 149.994 286.702 151.374 285.992 151.793C283.774 153.1 280.955 154.527 278.098 155.902C272.127 158.777 263.561 162.588 253.257 166.904C232.585 175.563 204.017 186.633 173.518 196.808C143.153 206.94 110.16 216.425 80.858 221.621C66.2197 224.217 51.8484 225.863 38.8194 225.802C26.2393 225.743 12.5183 224.109 0.784858 218.217L12.0037 195.876ZM274.723 128.964L268.262 153.114C236.501 144.616 213.989 139.785 198.816 137.517C191.197 136.378 185.988 135.973 182.685 135.954C178.487 135.93 179.858 136.565 183.151 135.011C185.185 134.051 189.551 131.471 192.528 125.844C195.755 119.744 195.445 113.712 194.341 109.755C192.721 103.951 189.358 101.887 191.437 103.709C194.029 105.981 200.566 110.212 211.136 115.309C231.728 125.239 260.287 134.976 284.06 138.164C296.12 139.781 304.842 139.411 310.094 138.009C311.28 137.693 312.103 137.371 312.637 137.117C313.163 136.866 313.361 136.704 313.357 136.708C313.337 136.724 313.188 136.853 313.018 137.098C312.938 137.211 312.875 137.32 312.829 137.412C312.783 137.505 312.765 137.558 312.766 137.556L336.487 145.449L360.208 153.343C353.795 172.615 338.047 182.302 322.981 186.32C308.575 190.163 292.356 189.723 277.416 187.72C247.188 183.668 213.509 171.963 189.419 160.347C177.647 154.67 166.23 148.103 158.482 141.312C155.392 138.603 148.761 132.442 146.181 123.196C144.596 117.517 144.382 109.927 148.333 102.461C152.033 95.4674 157.748 91.7115 161.81 89.7944C169.157 86.3269 177.291 85.9229 182.969 85.9551C189.542 85.9925 197.321 86.7383 206.206 88.0661C224.039 90.7313 248.594 96.0932 281.185 104.813L274.723 128.964ZM336.487 145.449L312.766 137.556C312.862 137.265 313.553 131.845 304.354 119.923C296.315 109.504 285.214 100.194 278.385 95.6753L292.182 74.8266L305.978 53.9778C316.604 61.0096 332.012 73.9196 343.94 89.3787C354.708 103.334 368.824 127.45 360.208 153.343L336.487 145.449ZM292.182 74.8266L269.29 84.8746C267.331 80.4132 265.117 73.4978 265.697 65.5749C266.366 56.4432 271.089 45.4066 282.95 39.4066C292.751 34.4489 303.219 35.2363 310.976 36.8069C319.356 38.5037 328.885 42.0167 339.692 47.1367L328.988 69.7293L318.284 92.3219C309.373 88.0998 303.922 86.3933 301.053 85.8123C297.561 85.1052 300.512 86.5563 305.52 84.0229C308.416 82.5581 311.15 80.1472 313.072 76.9224C314.887 73.8797 315.431 71.0466 315.564 69.2281C315.694 67.4525 315.472 66.2251 315.359 65.7136C315.236 65.1579 315.11 64.8615 315.073 64.7785L292.182 74.8266ZM328.988 69.7293L339.692 47.1367C345.166 49.7304 346.323 49.5641 344.877 49.4389C343.933 49.3572 340.759 49.204 336.765 50.8859C332.189 52.8124 328.492 56.3342 326.308 60.5693C323.005 66.9751 324.703 71.9569 324.232 69.4951C324.017 68.3751 323.437 66.3526 322.203 62.7342C321.194 59.7761 319.507 55.0867 318.26 51.0637C317.027 47.084 315.438 41.3939 315.041 35.4912C314.693 30.3298 314.794 18.488 324.349 9.20232C334.214 -0.385614 346.662 -0.105095 353.528 0.908548L349.877 25.6405L346.225 50.3724C345.055 50.1996 352.364 51.698 359.196 45.0583C362.444 41.9015 363.896 38.3937 364.493 36.0034C365.042 33.8034 364.941 32.3197 364.928 32.1321C364.917 31.9649 365.029 33.067 366.019 36.2626C366.996 39.4148 368.056 42.2835 369.526 46.5928C370.771 50.2418 372.402 55.196 373.339 60.0882C374.019 63.6385 375.809 73.6678 370.749 83.4829C367.686 89.4226 362.647 94.2395 356.168 96.9673C350.271 99.4505 344.633 99.6048 340.564 99.2526C332.868 98.5864 325.134 95.5671 318.284 92.3219L328.988 69.7293ZM349.877 25.6405L353.528 0.908548C378.395 4.57994 402.038 4.99504 415.388 6.13268L413.265 31.0424L411.143 55.9521C402.53 55.2181 372.787 54.2939 346.225 50.3724L349.877 25.6405Z" data-figma-gradient-fill="{&#34;type&#34;:&#34;GRADIENT_ANGULAR&#34;,&#34;stops&#34;:[{&#34;color&#34;:{&#34;r&#34;:0.31764706969261169,&#34;g&#34;:0.82352942228317261,&#34;b&#34;:0.14509804546833038,&#34;a&#34;:1.0},&#34;position&#34;:0.0},{&#34;color&#34;:{&#34;r&#34;:0.19833633303642273,&#34;g&#34;:0.49619853496551514,&#34;b&#34;:0.10497654974460602,&#34;a&#34;:1.0},&#34;position&#34;:0.016518857330083847}],&#34;stopsVar&#34;:[],&#34;transform&#34;:{&#34;m00&#34;:-14.717839241027832,&#34;m01&#34;:-174.03948974609375,&#34;m02&#34;:426.75598144531250,&#34;m10&#34;:-71.074775695800781,&#34;m11&#34;:-0.66320383548736572,&#34;m12&#34;:131.94987487792969},&#34;opacity&#34;:1.0,&#34;blendMode&#34;:&#34;NORMAL&#34;,&#34;visible&#34;:true}"/>
<defs>
<clipPath id="paint0_angular_2006_4_clip_path"><path d="M274.723 128.964L268.262 153.114L274.723 128.964ZM336.487 145.449L312.766 137.556L336.487 145.449ZM292.182 74.8266L278.385 95.6753L272.248 91.6138L269.29 84.8746L292.182 74.8266ZM349.877 25.6405L346.225 50.3724L349.877 25.6405ZM12.0037 195.876L23.2226 173.534C24.91 174.381 29.6405 175.758 39.0532 175.802C48.0172 175.844 59.1802 174.685 72.1281 172.389C97.9987 167.802 128.386 159.157 157.694 149.379C186.869 139.645 214.267 129.027 233.939 120.786C243.807 116.653 251.507 113.211 256.408 110.852C258.987 109.61 260.254 108.924 260.589 108.726C261.155 108.393 259.685 109.171 257.905 110.772C257.349 111.271 256.309 112.252 255.181 113.672C254.273 114.816 251.958 117.895 250.692 122.581C249.185 128.159 249.181 136.597 254.905 144.134C259.698 150.446 265.855 152.47 268.262 153.114L274.723 128.964L281.185 104.813C283.679 105.48 289.898 107.539 294.725 113.896C300.483 121.479 300.487 129.973 298.962 135.619C297.678 140.372 295.319 143.528 294.34 144.761C293.143 146.27 292.006 147.349 291.33 147.957C289.064 149.994 286.702 151.374 285.992 151.793C283.774 153.1 280.955 154.527 278.098 155.902C272.127 158.777 263.561 162.588 253.257 166.904C232.585 175.563 204.017 186.633 173.518 196.808C143.153 206.94 110.16 216.425 80.858 221.621C66.2197 224.217 51.8484 225.863 38.8194 225.802C26.2393 225.743 12.5183 224.109 0.784858 218.217L12.0037 195.876ZM274.723 128.964L268.262 153.114C236.501 144.616 213.989 139.785 198.816 137.517C191.197 136.378 185.988 135.973 182.685 135.954C178.487 135.93 179.858 136.565 183.151 135.011C185.185 134.051 189.551 131.471 192.528 125.844C195.755 119.744 195.445 113.712 194.341 109.755C192.721 103.951 189.358 101.887 191.437 103.709C194.029 105.981 200.566 110.212 211.136 115.309C231.728 125.239 260.287 134.976 284.06 138.164C296.12 139.781 304.842 139.411 310.094 138.009C311.28 137.693 312.103 137.371 312.637 137.117C313.163 136.866 313.361 136.704 313.357 136.708C313.337 136.724 313.188 136.853 313.018 137.098C312.938 137.211 312.875 137.32 312.829 137.412C312.783 137.505 312.765 137.558 312.766 137.556L336.487 145.449L360.208 153.343C353.795 172.615 338.047 182.302 322.981 186.32C308.575 190.163 292.356 189.723 277.416 187.72C247.188 183.668 213.509 171.963 189.419 160.347C177.647 154.67 166.23 148.103 158.482 141.312C155.392 138.603 148.761 132.442 146.181 123.196C144.596 117.517 144.382 109.927 148.333 102.461C152.033 95.4674 157.748 91.7115 161.81 89.7944C169.157 86.3269 177.291 85.9229 182.969 85.9551C189.542 85.9925 197.321 86.7383 206.206 88.0661C224.039 90.7313 248.594 96.0932 281.185 104.813L274.723 128.964ZM336.487 145.449L312.766 137.556C312.862 137.265 313.553 131.845 304.354 119.923C296.315 109.504 285.214 100.194 278.385 95.6753L292.182 74.8266L305.978 53.9778C316.604 61.0096 332.012 73.9196 343.94 89.3787C354.708 103.334 368.824 127.45 360.208 153.343L336.487 145.449ZM292.182 74.8266L269.29 84.8746C267.331 80.4132 265.117 73.4978 265.697 65.5749C266.366 56.4432 271.089 45.4066 282.95 39.4066C292.751 34.4489 303.219 35.2363 310.976 36.8069C319.356 38.5037 328.885 42.0167 339.692 47.1367L328.988 69.7293L318.284 92.3219C309.373 88.0998 303.922 86.3933 301.053 85.8123C297.561 85.1052 300.512 86.5563 305.52 84.0229C308.416 82.5581 311.15 80.1472 313.072 76.9224C314.887 73.8797 315.431 71.0466 315.564 69.2281C315.694 67.4525 315.472 66.2251 315.359 65.7136C315.236 65.1579 315.11 64.8615 315.073 64.7785L292.182 74.8266ZM328.988 69.7293L339.692 47.1367C345.166 49.7304 346.323 49.5641 344.877 49.4389C343.933 49.3572 340.759 49.204 336.765 50.8859C332.189 52.8124 328.492 56.3342 326.308 60.5693C323.005 66.9751 324.703 71.9569 324.232 69.4951C324.017 68.3751 323.437 66.3526 322.203 62.7342C321.194 59.7761 319.507 55.0867 318.26 51.0637C317.027 47.084 315.438 41.3939 315.041 35.4912C314.693 30.3298 314.794 18.488 324.349 9.20232C334.214 -0.385614 346.662 -0.105095 353.528 0.908548L349.877 25.6405L346.225 50.3724C345.055 50.1996 352.364 51.698 359.196 45.0583C362.444 41.9015 363.896 38.3937 364.493 36.0034C365.042 33.8034 364.941 32.3197 364.928 32.1321C364.917 31.9649 365.029 33.067 366.019 36.2626C366.996 39.4148 368.056 42.2835 369.526 46.5928C370.771 50.2418 372.402 55.196 373.339 60.0882C374.019 63.6385 375.809 73.6678 370.749 83.4829C367.686 89.4226 362.647 94.2395 356.168 96.9673C350.271 99.4505 344.633 99.6048 340.564 99.2526C332.868 98.5864 325.134 95.5671 318.284 92.3219L328.988 69.7293ZM349.877 25.6405L353.528 0.908548C378.395 4.57994 402.038 4.99504 415.388 6.13268L413.265 31.0424L411.143 55.9521C402.53 55.2181 372.787 54.2939 346.225 50.3724L349.877 25.6405Z"/></clipPath></defs>
</svg>
